<svg xmlns="http://www.w3.org/2000/svg" xmlns:xlink="http://www.w3.org/1999/xlink" version="1.1" x="0px" y="0px" viewBox="195.02 29.277 121.961 566.80625" fill="red"  style="enable-background:new 195.02 29.277 121.961 453.445;" xml:space="preserve"><path d="M313.662,42.053c-2.598-0.932-5.462,0.425-6.391,3.025c-0.28,0.782-27.749,77.083-55.057,107.562  c0.339-9.477,2.623-36.934,14.673-111.794c0.44-2.727-1.415-5.292-4.142-5.731c-2.723-0.437-5.292,1.415-5.731,4.142  c-8.462,52.567-12.204,82.229-13.774,98.949C229.836,100.39,226.558,34.817,226.521,34.04c-0.131-2.759-2.465-4.888-5.231-4.757  c-2.758,0.131-4.888,2.473-4.757,5.232c0.177,3.742,4.473,89.579,24.83,123.586c-24.193,4.831-46.343,23.287-46.343,57.577  c0,9.938,2.985,35.872,7.759,67.575h46.874c2.761,0,5,2.238,5,5c0,2.762-2.239,5-5,5h-45.337  c3.441,21.987,7.63,46.093,12.208,69.234c4.71,23.809,9.518,45.044,14.175,62.694h21.73c2.761,0,5,2.238,5,5c0,2.762-2.239,5-5,5  h-18.996c1.202,4.242,2.391,8.234,3.562,11.939c10.577,33.468,16.915,35.508,17.31,35.602c0.888-0.173,14.878-4.771,37.961-120.623  c0.078-0.392,0.156-0.787,0.234-1.181h-29.359c-2.761,0-5-2.238-5-5c0-2.762,2.239-5,5-5h31.31  c8.155-42.549,14.821-86.497,17.813-113.408h-46.253c-2.761,0-5-2.238-5-5c0-2.762,2.239-5,5-5h47.265  c0.45-5.059,0.689-9.081,0.689-11.832c0-37.16-26.014-55.72-52.451-58.498c27.934-33.077,54.032-105.538,55.174-108.736  C317.617,45.844,316.262,42.983,313.662,42.053z"/></svg>